{"title":"Ek Ruka Hua Faisla 1986 2CD 480p XViD 6Chnls ESubs - ClassiC","uid":8192765,"size":1467075326,"categoryP":"video","categoryS":"movies","magnet":"?xt=urn:btih:b3095bb1e9afbc3987c462a6c1debc677fbcaf33&amp;dn=Ek+Ruka+Hua+Faisla+1986+2CD+480p+XViD+6Chnls+ESubs+-+ClassiC&amp;tr=udp%3A%2F%2Ftracker.openbittorrent.com%3A80&amp;tr=udp%3A%2F%2Fopen.demonii.com%3A1337&amp;tr=udp%3A%2F%2Ftracker.coppersurfer.tk%3A6969&amp;tr=udp%3A%2F%2Fexodus.desync.com%3A6969","seeders":0,"leechers":2,"uploader":"brego45","files":2,"time":1361862989,"description":"Cover \n\n &lt;a href=&quot;\nhttp://desibbrg.org/images/23387168736056816626.jpg&quot; rel=&quot;nofollow&quot; target=&quot;_NEW&quot;&gt;\nhttp://desibbrg.org/images/23387168736056816626.jpg&lt;/a&gt;\n\n\nScreens\n &lt;a href=&quot;\nhttp://desibbrg.org/images/03714187828859358835.png&quot; rel=&quot;nofollow&quot; target=&quot;_NEW&quot;&gt;\nhttp://desibbrg.org/images/03714187828859358835.png&lt;/a&gt; &lt;a href=&quot;\nhttp://desibbrg.org/images/62675608757333743543.png&quot; rel=&quot;nofollow&quot; target=&quot;_NEW&quot;&gt;\nhttp://desibbrg.org/images/62675608757333743543.png&lt;/a&gt; &lt;a href=&quot;\nhttp://desibbrg.org/images/50963583204273542717.png&quot; rel=&quot;nofollow&quot; target=&quot;_NEW&quot;&gt;\nhttp://desibbrg.org/images/50963583204273542717.png&lt;/a&gt; &lt;a href=&quot;\nhttp://desibbrg.org/images/13185472699726127133.png&quot; rel=&quot;nofollow&quot; target=&quot;_NEW&quot;&gt;\nhttp://desibbrg.org/images/13185472699726127133.png&lt;/a&gt; &lt;a href=&quot;\nhttp://desibbrg.org/images/93873246301907063500.png&quot; rel=&quot;nofollow&quot; target=&quot;_NEW&quot;&gt;\nhttp://desibbrg.org/images/93873246301907063500.png&lt;/a&gt; &lt;a href=&quot;\nhttp://desibbrg.org/images/36008355043822012228.png&quot; rel=&quot;nofollow&quot; target=&quot;_NEW&quot;&gt;\nhttp://desibbrg.org/images/36008355043822012228.png&lt;/a&gt; &lt;a href=&quot;\nhttp://desibbrg.org/images/48415439762461488653.png&quot; rel=&quot;nofollow&quot; target=&quot;_NEW&quot;&gt;\nhttp://desibbrg.org/images/48415439762461488653.png&lt;/a&gt; &lt;a href=&quot;\nhttp://desibbrg.org/images/08697397682511456383.png&quot; rel=&quot;nofollow&quot; target=&quot;_NEW&quot;&gt;\nhttp://desibbrg.org/images/08697397682511456383.png&lt;/a&gt; &lt;a href=&quot;\nhttp://desibbrg.org/images/94868568716712790372.png&quot; rel=&quot;nofollow&quot; target=&quot;_NEW&quot;&gt;\nhttp://desibbrg.org/images/94868568716712790372.png&lt;/a&gt;\n\n &lt;a href=&quot;\nhttp://www.imdb.com/title/tt0157571/&quot; rel=&quot;nofollow&quot; target=&quot;_NEW&quot;&gt;\nhttp://www.imdb.com/title/tt0157571/&lt;/a&gt;\n\nEk Ruka Hua Faisla Cast &amp; Crew:\n\n    Banner\n\n    Release Date\n    1 Jan 1986\n\n    Genre\n    Drama\n\n    Producer\n    Basu Chatterjee\n\n    Star Cast\n    Pankaj Kapoor.... Juror #3\n    K K Raina.... Juror #8\n    Annu Kapoor.... Juror #9\n    M K Raina.... Juror #7\n    Deepak Qazir.... Juror #1\n    S. M. Zaheer\n    Subbiraj.... Juror #10\n    Amitabh Bachchan.... Guest Appearance\n    Amit Srivastava.... Juror #2\n\nFormat : AVI\nFormat/Info : Audio Video Interleave\nFile size : 1.37 GiB\nDuration : 2h 7mn\nOverall bit rate : 1 534 Kbps\nWriting application : VirtualDubMod 1.5.10.2 (build 2542/release)\nWriting library : VirtualDubMod build 2542/release\n\nVideo\nID : 0\nFormat : MPEG-4 Visual\nFormat profile : Advanced Simple@L5\nFormat settings, BVOP : 2\nFormat settings, QPel : Yes\nFormat settings, GMC : No warppoints\nFormat settings, Matrix : Custom\nCodec ID : XVID\nCodec ID/Hint : XviD\nDuration : 2h 7mn\nBit rate : 1 077 Kbps\nWidth : 656 pixels\nHeight : 480 pixels\nDisplay aspect ratio : 4:3\nFrame rate : 23.976 fps\nColor space : YUV\nChroma subsampling : 4:2:0\nBit depth : 8 bits\nScan type : Progressive\nCompression mode : Lossy\nBits/(Pixel*Frame) : 0.143\nStream size : 982 MiB (70%)\nWriting library : XviD 1.2.1 (UTC 2008-12-04)\n\nAudio\nID : 1\nFormat : AC-3\nFormat/Info : Audio Coding 3\nMode extension : CM (complete main)\nCodec ID : 2000\nDuration : 2h 7mn\nBit rate mode : Constant\nBit rate : 448 Kbps\nChannel(s) : 6 channels\nChannel positions : Front: L C R, Side: L R, LFE\nSampling rate : 48.0 KHz\nBit depth : 16 bits\nCompression mode : Lossy\nStream size : 409 MiB (29%)\nAlignment : Split accross interleaves\nInterleave, duration : 42 ms (1.00 video frame)\nInterleave, preload duration : 500 ms","torrent":{"xt":"urn:btih:b3095bb1e9afbc3987c462a6c1debc677fbcaf33","amp;dn":"Ek+Ruka+Hua+Faisla+1986+2CD+480p+XViD+6Chnls+ESubs+-+ClassiC","amp;tr":["udp%3A%2F%2Ftracker.openbittorrent.com%3A80","udp%3A%2F%2Fopen.demonii.com%3A1337","udp%3A%2F%2Ftracker.coppersurfer.tk%3A6969","udp%3A%2F%2Fexodus.desync.com%3A6969"],"infoHash":"b3095bb1e9afbc3987c462a6c1debc677fbcaf33","infoHashBuffer":{"type":"Buffer","data":[179,9,91,177,233,175,188,57,135,196,98,166,193,222,188,103,127,188,175,51]},"announce":[],"urlList":[]}}